<svg xmlns="http://www.w3.org/2000/svg" xmlns:xlink="http://www.w3.org/1999/xlink" width="1318.48" height="1047" viewBox="0 0 1318.48 1047"><defs><clipPath id="a" transform="translate(-3966.46 -1169.47)"><path d="M4333.85,1289.53v492.2s-218.5-.32-221.86,156c0,0-3.3,186.89,235.34,186.89,0,0,215.54-7,293.77-24.08,0,0,75.93-12.82,82.84-64.09,0,0,46.45-699.09,46.45-747H4333.85Z" style="fill:none"/></clipPath></defs><title>くつした診断中身</title><path d="M4865,1507.13c1,18.51-15.53,18.25-26.14,13.07-15.4-7.51-11.13-16.7-4.27-24.2,4-4.27,10.61-9.32,18.25-13.72-0.13-5.44-.26-11-0.26-16.18a48.53,48.53,0,0,1-15.53.52c-9.58-1.17-8-14.11,2.72-11.91,3.24,0.65,8,.13,13.07-1.17,0-6.08-.26-10.22-0.52-15.14-0.52-9.58,13.72-9.32,13.07-.13-0.26,2.85-.39,7-0.65,10.87a38.92,38.92,0,0,0,5.18-3c7-4.66,14.88,5.57,5.82,11a74.92,74.92,0,0,1-12.17,5.82c-0.13,4-.13,8.8,0,13.72a79.61,79.61,0,0,1,10.87-4c11.13-3.24,22.13-2.2,28.73.13,21.35,7.38,17.86,24.85,11.26,34.43-8.41,12.17-26.53,16.31-41.55,7.77-7.38-4.27-2.33-14.88,5.57-11,10.1,4.92,18.38,5,24.59-3.24,3.11-4.14,6.73-13.33-4.53-17.47-5-1.94-11.91-2.33-21-.26a65.78,65.78,0,0,0-13.59,4.92C4864.19,1494.83,4864.71,1501.56,4865,1507.13Zm-21.74-4.14c-2.72,3-2.72,6.34.26,7.77,5.57,2.72,9.32,2.33,9.45-2.72,0.13-3.5.13-8.28,0-13.59A63.54,63.54,0,0,0,4843.22,1503Zm73.38-40.9c-3.37-3-10.48-6.08-17.08-5.31-7.9.91-10-10.61-.65-11.39s22.26,2.46,26.92,7.38a6.29,6.29,0,0,1,.13,9.19A6.53,6.53,0,0,1,4916.61,1462.09Z" transform="translate(-3966.46 -1169.47)" style="fill:#231815"/><path d="M4981.57,1489.92c-4.53-12.55,2.46-21.87,10.35-24.33a25.65,25.65,0,0,1,11.13-1.16c-0.13-2.85-.26-6.73-0.39-10.48-10.87,1-21.61,2.59-28.34,3.62-9.32,1.42-15.4,3.11-19.28,3.75-8.67,1.55-11.26-11.39-1-13.07,5.18-.91,13.59-1.81,19-2.72,6.47-1,18.12-2.46,29.51-3.49v-2.33c0.13-8-.65-8.54-0.65-12.68,0-9.45,13.07-8.54,13.59-.39,0.13,3-.26,8.93-0.52,12.42,0,0.65-.13,1.29-0.13,1.94,3.75-.26,7.12-0.39,10-0.39,6.34,0,10.87-.13,19.67,0,10.87,0.26,10.35,14,0,13.2-9.19-.78-12.29-0.78-20.32-0.91-3,0-6.08.13-9.45,0.26,0.13,4.14.26,8.15,0.26,11.91,0,1.81.26,4.53,0.39,7.38,11.52,18.12-2.2,45.56-15.92,56.56-8.67,6.86-19.93-2.33-8.67-10.35,6.21-4.4,11.65-11.65,14.75-19C4997,1504,4985.72,1501.56,4981.57,1489.92Zm21.74-13.59c-1.81-1.55-5.57-1.81-8.28-.52-3.11,1.42-5.18,5.44-3.75,9.84,2.33,7,13.59,7,14.88-2.2,0.39-2.72,0-3.88-.78-4.92A16.68,16.68,0,0,0,5003.32,1476.33Z" transform="translate(-3966.46 -1169.47)" style="fill:#231815"/><path d="M5083.3,1451.35c-7.9-2.2-5.44-14.11,3.75-11.13,4.27,1.42,11,1.29,17.73-.39a83.55,83.55,0,0,0,2.59-13.07c1.16-7.64,12.55-6.21,12.29,1.17a43.61,43.61,0,0,1-1.81,7.89,40.22,40.22,0,0,0,4.14-2.2c5.82-4.14,14,3.88,5.69,9.84-3.24,2.33-8.54,4.4-13.85,6-6.08,14.63-14.88,30.16-23.17,43.62-4.79,7.77-17.21,2.72-11.52-5.69,7.25-10.74,14.88-21.74,21.23-35.33A35.41,35.41,0,0,1,5083.3,1451.35Zm22.26,72.87c-12-6.08-13.46-20.06-.13-26,8-3.62,16.83-3.88,24.85-2.46v-4.53c0-3.24-.26-6.47-0.39-9.71a38.53,38.53,0,0,1,.65-8.67c1.55-7.12,12.94-5.44,11.65,2.33a25.85,25.85,0,0,0-.78,6.08c0,3,0,6.21.13,10,0.13,2.46.39,5.18,0.52,8,6.86,2.85,12.55,6.86,15.79,10.35,7.38,8.15-3.11,17.34-9.32,9.84a37.49,37.49,0,0,0-7.38-6.73C5137.4,1523,5121.22,1532.11,5105.56,1524.21Zm4.14-17c-3.49,1.81-3.75,5.57.13,7.51,7.77,3.88,18.25.13,19.67-6.86,0.13-.39,0-0.91.13-1.29C5123,1504.41,5116,1504.15,5109.7,1507.26Zm28.86-47.76c-7.12.39-7.64-10.35,0.65-11.13,8.54-.78,17.6.78,23.81,4.53,8.8,5.31,2.07,16-4.27,12A33.27,33.27,0,0,0,5138.56,1459.5Z" transform="translate(-3966.46 -1169.47)" style="fill:#231815"/><path d="M5213.89,1526.67a9,9,0,0,1-8.93-8.54c0-5.69,5.44-8.93,8.93-8.93,5,0,8.93,3.11,8.93,8.93C5222.82,1524.34,5217.38,1526.67,5213.89,1526.67Zm-5.57-32.87v-2.72c0-12.55-1.29-42.71-2.07-63v-0.39c0-4.79,3.75-7.12,7.51-7.12s7.77,2.46,7.77,7.51c0,15.27-2.07,50.86-2.07,63.42,0,3.11,0,8.54-5.69,8.54-2.72,0-5.44-2.07-5.44-6.08v-0.13Z" transform="translate(-3966.46 -1169.47)" style="fill:#231815"/><path d="M5276,1526.67a9,9,0,0,1-8.93-8.54c0-5.69,5.44-8.93,8.93-8.93,5,0,8.93,3.11,8.93,8.93C5284.94,1524.34,5279.5,1526.67,5276,1526.67Zm-5.57-32.87v-2.72c0-12.55-1.29-42.71-2.07-63v-0.39c0-4.79,3.75-7.12,7.51-7.12s7.77,2.46,7.77,7.51c0,15.27-2.07,50.86-2.07,63.42,0,3.11,0,8.54-5.69,8.54-2.72,0-5.44-2.07-5.44-6.08v-0.13Z" transform="translate(-3966.46 -1169.47)" style="fill:#231815"/><polyline points="1060.01 456.48 1060.01 577.77 878.81 577.77" style="fill:none;stroke:#231815;stroke-miterlimit:10;stroke-width:40px"/><polyline points="935.95 520.63 878.81 577.77 935.95 634.92" style="fill:none;stroke:#231815;stroke-miterlimit:10;stroke-width:40px"/><g style="clip-path:url(#a)"><rect x="22.14" width="982.97" height="982.97" style="fill:#c30d23"/><polygon points="296.4 589.85 365.02 1047 0 792.34 52.7 618.5 296.4 589.85" style="fill:#e83828"/><polygon points="339.92 222.86 870.72 233.91 768.43 47.38 324.54 82.37 339.92 222.86" style="fill:#e83828"/><polygon points="654.66 979.66 620.91 743.42 823.41 743.42 823.41 1004.97 654.66 979.66" style="fill:#e83828"/></g></svg>